<svg xmlns="http://www.w3.org/2000/svg" width="454.419" height="447.198" viewBox="0 0 454.419 447.198">
  <g id="Privacy_policy-pana" data-name="Privacy policy-pana" transform="translate(-23.34 -24.402)">
    <g id="freepik--background-complete--inject-9">
      <path id="Path_3246" data-name="Path 3246" d="M368.6,24.7,339.35,39.37a5.93,5.93,0,0,0-3.61,5.46V58.51a63.49,63.49,0,0,0,10.43,35c5.27,8,12.26,18.29,23.89,24.16h5.24c12.95-4,22.61-14.47,28.51-23.47a63.509,63.509,0,0,0,10.43-35V44.83a5.94,5.94,0,0,0-3.6-5.46l-33.32-14.2C375.83,24.54,370.08,24.07,368.6,24.7Z" fill="#e0e0e0"/>
      <path id="Path_3247" data-name="Path 3247" d="M367.42,25.17,334.1,39.37a5.93,5.93,0,0,0-3.61,5.46V58.51A64.059,64.059,0,0,0,370.056,117.7c12.944-4,22.6-14.468,28.514-23.468A63.59,63.59,0,0,0,409,59.2V44.83a5.93,5.93,0,0,0-3.61-5.46l-33.32-14.2A6,6,0,0,0,367.42,25.17Z" fill="#f5f5f5"/>
      <path id="Path_3248" data-name="Path 3248" d="M408.89,55.49a2.639,2.639,0,0,1,.06.63c0,.47.05,1.07.08,1.81a24.738,24.738,0,0,1,0,2.87c-.08,1.12,0,2.4-.18,3.8s-.23,3-.52,4.59c-.13.82-.23,1.67-.4,2.54s-.38,1.75-.57,2.66a65.08,65.08,0,0,1-3.85,11.51,68.719,68.719,0,0,1-6,10.56,51.431,51.431,0,0,1-3.24,4.19c-.54.63-1,1.27-1.55,1.83l-1.52,1.61c-.95,1-1.92,1.88-2.73,2.66s-1.55,1.39-2.16,1.88L385,109.77a2.778,2.778,0,0,1-.51.37,2.91,2.91,0,0,1,.45-.45l1.35-1.21a24.2,24.2,0,0,0,2.09-2c.78-.85,1.74-1.63,2.66-2.69l1.49-1.63c.51-.56,1-1.2,1.52-1.83,1.08-1.25,2.08-2.7,3.17-4.2a70,70,0,0,0,5.9-10.49,67.579,67.579,0,0,0,3.85-11.41l.59-2.64c.18-.86.29-1.71.43-2.52.3-1.62.42-3.15.57-4.55s.17-2.66.25-3.78.07-2.07.07-2.86V56.07a2.828,2.828,0,0,1,.01-.58Z" fill="#e0e0e0"/>
      <path id="Path_3249" data-name="Path 3249" d="M367.26,85.23,348.15,70.04l5.3-6.67,12.82,10.19,18.72-20.95,6.35,5.68Z" fill="#fff"/>
      <path id="Path_3250" data-name="Path 3250" d="M457.54,99.56h-3.62V79.87a8.4,8.4,0,1,0-16.8,0V99.56H433.5V79.87a12,12,0,0,1,24,0Z" fill="#ebebeb"/>
      <rect id="Rectangle_444" data-name="Rectangle 444" width="32.39" height="25.39" rx="3.08" transform="translate(429.32 86.2)" fill="#ebebeb"/>
      <path id="Path_3251" data-name="Path 3251" d="M448,99.55a3.48,3.48,0,0,0,1-2.48,3.57,3.57,0,1,0-4.54,3.41l-.76,3.38h3.39l-.68-3.38a3.54,3.54,0,0,0,1.56-.93" fill="#fafafa"/>
      <path id="Path_3252" data-name="Path 3252" d="M46.43,386.94a30,30,0,0,0-12.83-4.41c-2.1-.22-4.39-.16-6.07,1.11a1.25,1.25,0,0,0-.63,1.11,1.39,1.39,0,0,0,.6.76,18.33,18.33,0,0,0,18.93,1.43" fill="#e0e0e0"/>
      <path id="Path_3253" data-name="Path 3253" d="M46.1,386.58a63.252,63.252,0,0,1-8.29-7.29,20.91,20.91,0,0,1-5.19-9.61,3.87,3.87,0,0,1,.41-3.22c6.6,5.16,11.79,11.84,13.07,20.12" fill="#e0e0e0"/>
      <path id="Path_3254" data-name="Path 3254" d="M46.36,386.89A30.13,30.13,0,0,1,46.52,376a14.74,14.74,0,0,1,5.79-9c1.14,2.67.65,5.75-.15,8.53a41.18,41.18,0,0,1-5.75,12.1" fill="#e0e0e0"/>
      <path id="Path_3255" data-name="Path 3255" d="M52.84,398.5a19,19,0,0,0-10.29,5.21,19.45,19.45,0,0,0-5.89,10.1c3.86-.24,7.13-3,9.5-6s4-6.39,6.63-9.24" fill="#e0e0e0"/>
      <path id="Path_3256" data-name="Path 3256" d="M54.25,400.35a25.36,25.36,0,0,1,2.93-24c2.24,8,1.41,17-2.93,24" fill="#e0e0e0"/>
      <path id="Path_3257" data-name="Path 3257" d="M62.8,410.54a18.39,18.39,0,0,0-17.55,10.11c-.21.43-.41,1-.11,1.37a1.28,1.28,0,0,0,1.16.34c3.46-.22,6.52-2.3,9.05-4.67s4.74-5.11,7.53-7.16" fill="#e0e0e0"/>
      <path id="Path_3258" data-name="Path 3258" d="M62.53,410a32.69,32.69,0,0,1-.33-18.26c.65-2.35,1.73-4.82,3.9-5.92a.76.76,0,0,1,.6-.11.77.77,0,0,1,.37.44,10.89,10.89,0,0,1,.92,5.23,32.931,32.931,0,0,1-.82,5.31c-.68,3.24-1,6.72-2.83,9.52a20,20,0,0,0-1.13,2.09,16.3,16.3,0,0,1-.64,1.52" fill="#e0e0e0"/>
      <path id="Path_3259" data-name="Path 3259" d="M85.18,413.36A23.5,23.5,0,0,1,89.31,394c.29-.39.68-.8,1.17-.76.74.07.93,1.06.9,1.8a35,35,0,0,1-6.2,18.31" fill="#e0e0e0"/>
      <path id="Path_3260" data-name="Path 3260" d="M87.22,414.76a28.14,28.14,0,0,0,23.11-4.7,18.67,18.67,0,0,0-12.51-1.53c-4.18,1-8,2.82-10.6,6.23" fill="#e0e0e0"/>
      <path id="Path_3261" data-name="Path 3261" d="M88.94,410.51c4.35-7.08,12.68-11.7,21-12.13a13.069,13.069,0,0,1-6.86,7.59A38.189,38.189,0,0,1,93,408.91c-1.34.26-3.18.55-4,1.6" fill="#e0e0e0"/>
      <path id="Path_3262" data-name="Path 3262" d="M85.61,389.88a60.249,60.249,0,0,0,2.68-12.28,20.39,20.39,0,0,0-2.44-12.14c-4.06,7.85-4.47,17-.36,24.85" fill="#e0e0e0"/>
      <path id="Path_3263" data-name="Path 3263" d="M99.27,383c4.75-8.62,14.43-15.51,24.22-16.48-3.78,9.41-14.08,16.68-24.22,16.48" fill="#e0e0e0"/>
      <path id="Path_3264" data-name="Path 3264" d="M96.29,384.67c7.07,1.08,13.1,5.6,19.71,8.34a8.9,8.9,0,0,0,4.46.85,3.49,3.49,0,0,0,2.19-6.17,9.6,9.6,0,0,0-3.24-2c-7.2-3-14.93-3.07-22.51-1.25" fill="#e0e0e0"/>
      <path id="Path_3265" data-name="Path 3265" d="M92.19,389.63c1.6.46,2.15,1.29,3.42,2.37a36.791,36.791,0,0,0,15,7.68c.57.14,1.32.2,1.61-.31s-.07-1-.39-1.4a20.53,20.53,0,0,0-9-6.13c-3.45-1.29-6.44-2.84-10.56-2.5" fill="#e0e0e0"/>
      <path id="Path_3266" data-name="Path 3266" d="M87.57,359.66a28.3,28.3,0,0,0,21.7,7.38,1.47,1.47,0,0,0,1-.35c.55-.6-.11-1.52-.74-2-6.38-5-14.11-7-21.94-5" fill="#e0e0e0"/>
      <path id="Path_3267" data-name="Path 3267" d="M93.05,357.65a30.24,30.24,0,0,1,27.07-4.46,21.52,21.52,0,0,1-12.9,5.66,40.58,40.58,0,0,1-14.17-1.2" fill="#e0e0e0"/>
      <path id="Path_3268" data-name="Path 3268" d="M90.87,343.88c-.62-6.37-.22-11.39-.66-17.79,0-.51-.14-1.12-.62-1.31-.67-.25-1.22.56-1.44,1.24a20.39,20.39,0,0,0,2.71,17.72" fill="#e0e0e0"/>
      <path id="Path_3269" data-name="Path 3269" d="M90.41,344.58A37.31,37.31,0,0,0,101,334.33c2.08-2.85,3.84-6.26,3.37-9.76a10.09,10.09,0,0,0-7.61,3.78,21.33,21.33,0,0,0-3.88,7.8c-.84,2.8-1.43,5.68-2.43,8.43" fill="#e0e0e0"/>
      <path id="Path_3270" data-name="Path 3270" d="M100.78,341.7a85,85,0,0,0,26-15.3c-3.1-1.25-6.65-.5-9.75.75a30.72,30.72,0,0,0-16.34,14.49" fill="#e0e0e0"/>
      <path id="Path_3271" data-name="Path 3271" d="M93.33,348.07a53.092,53.092,0,0,0,14.41.07c4.67-.78,9.09-2.64,13.45-4.47a1.64,1.64,0,0,0,.92-.7,1.07,1.07,0,0,0-.33-1.15,2.84,2.84,0,0,0-1.15-.54c-4.75-1.32-9.87-.7-14.54.87a67.49,67.49,0,0,0-12.76,5.92" fill="#e0e0e0"/>
      <path id="Path_3272" data-name="Path 3272" d="M66,359.88c-3.27-6.6-3-14.3-.23-21.1,2,3,2.23,6.88,1.87,10.49s-1.46,7.31-1.54,10.93" fill="#e0e0e0"/>
      <path id="Path_3273" data-name="Path 3273" d="M52.91,353.29a29.38,29.38,0,0,0-21.86,9.32,20.49,20.49,0,0,0,12-2.22,60.642,60.642,0,0,0,10.26-6.87" fill="#e0e0e0"/>
      <path id="Path_3274" data-name="Path 3274" d="M44.13,350.35c-4-.32-7.83-.81-11.67.36a14,14,0,0,0-8.89,7.55,21.1,21.1,0,0,0,10.94-2.07,62.618,62.618,0,0,0,9.62-5.84" fill="#e0e0e0"/>
      <path id="Path_3275" data-name="Path 3275" d="M57.13,350.49c-3.59-2.35-7.28-4.75-11.46-5.73s-9-.25-11.94,2.9c3.38,2,7.49,2.22,11.42,2.22s8.73-.05,12.43,1.26" fill="#e0e0e0"/>
      <path id="Path_3276" data-name="Path 3276" d="M57.15,350.68c-6.14-6-8.46-16.86-6-25.1a38.28,38.28,0,0,1,6,25.1" fill="#e0e0e0"/>
      <path id="Path_3277" data-name="Path 3277" d="M74,333.6c1.16-2.7,2-5.52,3-8.26a23.73,23.73,0,0,1,4.29-7.61,11.34,11.34,0,0,1,7.61-4,30.68,30.68,0,0,1-14.76,19.86" fill="#e0e0e0"/>
      <path id="Path_3278" data-name="Path 3278" d="M71,337.16c-1.91-2.64-4.13-6.22-6.73-8.19s-6-3.16-9.15-2.41A21.35,21.35,0,0,0,71,337.16" fill="#e0e0e0"/>
      <path id="Path_3279" data-name="Path 3279" d="M71.59,333.82a46.19,46.19,0,0,1-3-9.81,15.39,15.39,0,0,1,1.54-10c3.37,6.37,4.46,13.21,1.67,19.86" fill="#e0e0e0"/>
      <path id="Path_3280" data-name="Path 3280" d="M74.07,314c1.91-6.31,7.69-11,13.94-13.1a5.12,5.12,0,0,1,2.44-.36,2.1,2.1,0,0,1,1.8,1.5c.23,1.07-.66,2-1.5,2.75A47.339,47.339,0,0,1,74.07,314" fill="#e0e0e0"/>
      <path id="Path_3281" data-name="Path 3281" d="M74.14,308.87c.24-4.08.49-8.21,1.82-12.07s3.88-7.47,7.59-9.16c.63,4.11-1.18,8.2-3.37,11.74s-4.83,6.88-6.14,10.83" fill="#e0e0e0"/>
      <path id="Path_3282" data-name="Path 3282" d="M74,311.67c-1.58-4.6-1.74-10.45-4.5-14.46-1.93-2.8-5-4.71-6.67-7.68a11.67,11.67,0,0,0,.39,8.72,25.23,25.23,0,0,0,5.1,7.3c2,2.18,3.78,3.82,5.68,6.12" fill="#e0e0e0"/>
      <path id="Path_3283" data-name="Path 3283" d="M74.07,447.22c-.12,0-.23-30.7-.24-68.57s.09-68.58.21-68.58.23,30.69.24,68.58S74.19,447.22,74.07,447.22Z" fill="#e0e0e0"/>
      <path id="Path_3284" data-name="Path 3284" d="M100.9,355.24a5.9,5.9,0,0,1-1.15.44l-3.18,1.07c-2.68.91-6.36,2.23-10.35,3.87s-7.69,3.07-9.81,4.91a7.2,7.2,0,0,0-2,2.61c-.31.72-.36,1.16-.4,1.16s0-.12,0-.33a5.31,5.31,0,0,1,.23-.89,6.92,6.92,0,0,1,1.92-2.78,17.1,17.1,0,0,1,4.26-2.64c1.7-.8,3.59-1.63,5.59-2.45,4-1.64,7.71-2.92,10.42-3.76,1.36-.42,2.46-.73,3.23-.94a6.74,6.74,0,0,1,1.24-.27Z" fill="#e0e0e0"/>
      <path id="Path_3285" data-name="Path 3285" d="M109.7,333.64a1.73,1.73,0,0,1-.33.34l-1,.93-3.68,3.34-12.24,10.9c-4.78,4.26-8.91,8.32-11.77,11.38-1.44,1.53-2.57,2.8-3.34,3.68l-.89,1a1.57,1.57,0,0,1-.33.33,2.051,2.051,0,0,1,.27-.39c.18-.25.45-.62.82-1.07.73-.92,1.83-2.22,3.24-3.78a154.561,154.561,0,0,1,11.7-11.5c4.8-4.24,9.16-8.06,12.33-10.8,1.56-1.34,2.84-2.43,3.77-3.24l1-.86a1.9,1.9,0,0,1,.45-.26Z" fill="#e0e0e0"/>
      <path id="Path_3286" data-name="Path 3286" d="M87.31,353.48c-.13-.06.87-2.36,1.87-5.28s1.47-5.37,1.6-5.35a18,18,0,0,1-1.18,5.49A36.114,36.114,0,0,1,88.11,352a6.451,6.451,0,0,1-.8,1.48Z" fill="#e0e0e0"/>
      <path id="Path_3287" data-name="Path 3287" d="M74.1,372.06a4.641,4.641,0,0,1-.74-.85l-1.89-2.42c-1.58-2.05-3.77-4.88-6.23-8s-4.71-5.87-6.35-7.88L57,350.55a5.679,5.679,0,0,1-.67-.91,5.843,5.843,0,0,1,.8.8c.49.53,1.19,1.32,2,2.3,1.7,2,4,4.7,6.46,7.8s4.61,6,6.13,8.06c.77,1,1.37,1.91,1.78,2.51a5.519,5.519,0,0,1,.6.95Z" fill="#e0e0e0"/>
      <path id="Path_3288" data-name="Path 3288" d="M68.21,364.51a10.78,10.78,0,0,1-2.46-4.61,13,13,0,0,1-.56-4.66h.2a1.47,1.47,0,0,1-.19.54s0-.21,0-.57h.2a21,21,0,0,0,.78,4.53,35.89,35.89,0,0,0,2.03,4.77Z" fill="#e0e0e0"/>
      <path id="Path_3289" data-name="Path 3289" d="M60.62,355a8.448,8.448,0,0,0-1.72-1,11.31,11.31,0,0,0-4.78-.38,28.319,28.319,0,0,0-4.81.77,16.254,16.254,0,0,1-2,.48,6.371,6.371,0,0,1,1.89-.78,21.889,21.889,0,0,1,4.87-.92,10.44,10.44,0,0,1,4.92.53A3.09,3.09,0,0,1,60.62,355Z" fill="#e0e0e0"/>
      <path id="Path_3290" data-name="Path 3290" d="M58.82,352.64c0,.07-1-.4-2.64-1a26.63,26.63,0,0,0-13.29-1c-1.7.3-2.72.62-2.75.55a2.3,2.3,0,0,1,.7-.3,16.186,16.186,0,0,1,2-.56,23.429,23.429,0,0,1,13.46,1.02,16.406,16.406,0,0,1,1.88.86,2.52,2.52,0,0,1,.64.43Z" fill="#e0e0e0"/>
      <path id="Path_3291" data-name="Path 3291" d="M74,342.85a53.94,53.94,0,0,1-1.92-6.68,53.761,53.761,0,0,1-1.5-6.79,54.94,54.94,0,0,1,1.93,6.68A54.7,54.7,0,0,1,74,342.85Z" fill="#e0e0e0"/>
      <path id="Path_3292" data-name="Path 3292" d="M74.16,342.85a32.06,32.06,0,0,0-2.13-4,17.27,17.27,0,0,0-3.14-3.24,3,3,0,0,1,1.21.63,9.7,9.7,0,0,1,2.29,2.35A8.87,8.87,0,0,1,74.16,342.85Z" fill="#e0e0e0"/>
      <path id="Path_3293" data-name="Path 3293" d="M74.07,430.85s-.14-.74-.49-2a28.9,28.9,0,0,0-2-5.32A73.621,73.621,0,0,0,60.7,408.2c-2.43-2.78-4.79-5.4-6.79-7.91a54.473,54.473,0,0,1-4.86-7,33.321,33.321,0,0,1-2.45-5.2c-.23-.64-.39-1.14-.48-1.48a3.169,3.169,0,0,1-.13-.53s.26.7.77,1.95a38.679,38.679,0,0,0,2.56,5.1,58.867,58.867,0,0,0,4.9,6.91c2,2.48,4.38,5.08,6.81,7.86a70,70,0,0,1,10.84,15.5,26.731,26.731,0,0,1,1.93,5.41,14.089,14.089,0,0,1,.27,1.54A2.72,2.72,0,0,1,74.07,430.85Z" fill="#e0e0e0"/>
      <path id="Path_3294" data-name="Path 3294" d="M98.32,403.47a14.146,14.146,0,0,1-1.27.71,26.736,26.736,0,0,0-3.3,2.18,36.211,36.211,0,0,0-4.33,3.95c-1.52,1.6-3.08,3.46-4.68,5.46-3.19,4-6.18,7.56-8,10.39-.91,1.4-1.57,2.58-2,3.41a11.3,11.3,0,0,1-.7,1.28.881.881,0,0,1,.12-.36c.12-.23.22-.57.42-1A32.265,32.265,0,0,1,76.5,426a115.691,115.691,0,0,1,7.89-10.5c1.6-2,3.19-3.86,4.74-5.47a35,35,0,0,1,4.43-3.91A22.427,22.427,0,0,1,97,404a9.179,9.179,0,0,1,1-.44Q98.31,403.44,98.32,403.47Z" fill="#e0e0e0"/>
      <path id="Path_3295" data-name="Path 3295" d="M98.79,412.35a18.882,18.882,0,0,1-2.69.39A34.872,34.872,0,0,0,89.73,414a19,19,0,0,0-5.7,3c-1.31,1-1.93,1.85-2,1.81s.1-.25.39-.62a10,10,0,0,1,1.4-1.43,17.26,17.26,0,0,1,5.77-3.18,28.489,28.489,0,0,1,6.47-1.14A14.873,14.873,0,0,1,98.79,412.35Z" fill="#e0e0e0"/>
      <path id="Path_3296" data-name="Path 3296" d="M82.82,417.82c-.14-.08,1.07-1.93,2-4.42s1.09-4.71,1.24-4.68a4.08,4.08,0,0,1,0,1.44,16.14,16.14,0,0,1-.78,3.4,16.851,16.851,0,0,1-1.56,3.11,4.32,4.32,0,0,1-.9,1.15Z" fill="#e0e0e0"/>
      <path id="Path_3297" data-name="Path 3297" d="M106.17,379.61a1.56,1.56,0,0,1-.43.23l-1.26.57c-.56.24-1.23.54-2,.94s-1.65.8-2.57,1.35l-1.46.83c-.51.3-1,.64-1.55,1-1.08.65-2.16,1.46-3.32,2.28a63.569,63.569,0,0,0-6.92,6.09,62.077,62.077,0,0,0-5.83,7.1c-.79,1.19-1.56,2.3-2.18,3.4-.31.54-.64,1.06-.92,1.58l-.73,1.5c-.52.94-.89,1.84-1.26,2.61s-.65,1.45-.87,2-.39.94-.53,1.28a2.4,2.4,0,0,1-.21.44,1.6,1.6,0,0,1,.13-.47l.45-1.31c.2-.57.45-1.27.8-2.05s.7-1.7,1.21-2.65c.24-.49.5-1,.76-1.52s.59-1,.91-1.6c.61-1.12,1.37-2.24,2.15-3.44a55.26,55.26,0,0,1,12.87-13.32c1.17-.82,2.27-1.62,3.36-2.26.55-.33,1.06-.68,1.57-1l1.49-.82c.94-.53,1.84-.92,2.61-1.29a20.8,20.8,0,0,1,2-.87l1.3-.5A2.242,2.242,0,0,1,106.17,379.61Z" fill="#e0e0e0"/>
      <path id="Path_3298" data-name="Path 3298" d="M87,392.47a3,3,0,0,1,1-1.57,6.64,6.64,0,0,1,4.26-1.63,11.64,11.64,0,0,1,4.47.87,6.73,6.73,0,0,1,1.69.82,9.621,9.621,0,0,1-1.79-.52,13.3,13.3,0,0,0-4.36-.73,6.9,6.9,0,0,0-4.06,1.43A11.327,11.327,0,0,0,87,392.47Z" fill="#e0e0e0"/>
      <path id="Path_3299" data-name="Path 3299" d="M84.11,395.43a16.139,16.139,0,0,0,1.21-3.93,16.52,16.52,0,0,0-.27-4.1,2.62,2.62,0,0,1,.5,1.15,8.13,8.13,0,0,1-.69,5.88C84.48,395.11,84.15,395.46,84.11,395.43Z" fill="#e0e0e0"/>
      <path id="Path_3300" data-name="Path 3300" d="M52.86,435.25c.66,11.74,4.2,23.67,9.64,35.74H86.15c5.19-11.95,8.48-23.86,9.06-35.74Z" fill="#e0e0e0"/>
      <path id="Path_3301" data-name="Path 3301" d="M91.38,454.24c0,.12-7.79.22-17.39.22s-17.39-.1-17.39-.22S64.38,454,74,454,91.38,454.12,91.38,454.24Z" fill="#fafafa"/>
      <path id="Path_3302" data-name="Path 3302" d="M90.85,458.49c0,.12-7.3.22-16.3.22s-16.31-.1-16.31-.22,7.3-.22,16.31-.22S90.85,458.37,90.85,458.49Z" fill="#fafafa"/>
      <path id="Path_3303" data-name="Path 3303" d="M62.88,443a67.49,67.49,0,0,1,0,10.89,67.491,67.491,0,0,1,0-10.89Z" fill="#fafafa"/>
      <path id="Path_3304" data-name="Path 3304" d="M75.55,443a72.4,72.4,0,0,1,0,11.28,72.4,72.4,0,0,1,0-11.28Z" fill="#fafafa"/>
      <path id="Path_3305" data-name="Path 3305" d="M87.45,442.86a75.381,75.381,0,0,1,0,11.51,75.38,75.38,0,0,1,0-11.51Z" fill="#fafafa"/>
      <path id="Path_3306" data-name="Path 3306" d="M94.46,443c0,.12-9.13.22-20.39.22s-20.41-.1-20.41-.22,9.14-.22,20.41-.22S94.46,442.83,94.46,443Z" fill="#fafafa"/>
      <path id="Path_3307" data-name="Path 3307" d="M461.39,333.53a12.1,12.1,0,0,0,7.21-11.19c0-6.68-5-12.12-11.29-12.14s-11.37,5.36-11.39,12a12.08,12.08,0,0,0,7.22,11.29c-17.45,2.63-16.66,21.59-16.66,21.59l41.27.19S478.69,336.14,461.39,333.53Z" fill="#ebebeb"/>
      <path id="Path_3308" data-name="Path 3308" d="M275.87,57.81a8,8,0,0,0,6.26-6.08,7.44,7.44,0,1,0-14.46-3.42,7.9,7.9,0,0,0,2.94,8.28c-11.53-.91-13.82,11.31-13.82,11.31l26.3,6.23S286.53,62,275.87,57.81Z" fill="#ebebeb"/>
      <path id="Path_3309" data-name="Path 3309" d="M462.52,159.61A7.6,7.6,0,0,0,466,152a7.14,7.14,0,1,0-14.11,2,7.57,7.57,0,0,0,5.51,6.37c-10.61,3.21-8.42,14.93-8.42,14.93l25.68-3.59S473.51,159.68,462.52,159.61Z" fill="#f5f5f5"/>
      <path id="Path_3310" data-name="Path 3310" d="M50.48,163.24,36.61,152.21l3.84-4.84,9.31,7.39,13.58-15.19,4.61,4.12Z" fill="#f5f5f5"/>
    </g>
    <g id="freepik--Floor--inject-9">
      <path id="Path_3311" data-name="Path 3311" d="M470.66,471.34c0,.15-100.15.26-223.65.26s-223.67-.11-223.67-.26,100.12-.26,223.67-.26S470.66,471.2,470.66,471.34Z" fill="#263238"/>
    </g>
    <g id="freepik--Icon--inject-9">
      <path id="Path_3312" data-name="Path 3312" d="M69.4,179.21,38.73,194.6A6.21,6.21,0,0,0,35,200.32v14.35a66.61,66.61,0,0,0,10.93,36.74c5.53,8.42,12.86,19.18,25.05,25.33h5.5c13.58-4.14,23.71-15.17,29.9-24.61a66.62,66.62,0,0,0,10.94-36.74V200.32a6.23,6.23,0,0,0-3.78-5.72L78.55,179.71C77,179.05,71,178.55,69.4,179.21Z" fill="#07d8a6"/>
      <path id="Path_3313" data-name="Path 3313" d="M69.4,179.21,38.73,194.6A6.21,6.21,0,0,0,35,200.32v14.35a66.61,66.61,0,0,0,10.93,36.74c5.53,8.42,12.86,19.18,25.05,25.33h5.5c13.58-4.14,23.71-15.17,29.9-24.61a66.62,66.62,0,0,0,10.94-36.74V200.32a6.23,6.23,0,0,0-3.78-5.72L78.55,179.71C77,179.05,71,178.55,69.4,179.21Z" opacity="0.3"/>
      <path id="Path_3314" data-name="Path 3314" d="M68.17,179.71,33.22,194.6a6.23,6.23,0,0,0-3.78,5.72v14.35a67.179,67.179,0,0,0,41.486,62.068c13.574-4.138,23.7-15.168,29.9-24.608a66.62,66.62,0,0,0,10.94-36.74V200.32A6.23,6.23,0,0,0,108,194.6L73,179.71A6.24,6.24,0,0,0,68.17,179.71Z" fill="#07d8a6"/>
      <circle id="Ellipse_82" data-name="Ellipse 82" cx="22.91" cy="22.91" r="22.91" transform="translate(40.968 210.362) rotate(-21.2)" opacity="0.3"/>
      <circle id="Ellipse_83" data-name="Ellipse 83" cx="9.51" cy="9.51" r="9.51" transform="translate(61.09 205.69)" fill="#fff"/>
      <path id="Path_3315" data-name="Path 3315" d="M53.24,238.37a18.57,18.57,0,0,1,17-10.56A20.219,20.219,0,0,1,88,238.367s-5.608,8.3-18,8a21.74,21.74,0,0,1-16.76-8Z" fill="#fff"/>
      <path id="Path_3316" data-name="Path 3316" d="M93.51,223.44a2,2,0,0,1,0-.37,5.165,5.165,0,0,0-.09-1.08v-.8a9.791,9.791,0,0,0-.15-1,16.94,16.94,0,0,0-.48-2.35,22.14,22.14,0,0,0-2.55-6.06,22.82,22.82,0,0,0-5.8-6.44,22.49,22.49,0,0,0-9.56-4.22,22.75,22.75,0,0,0-11.91,1,21.88,21.88,0,0,0-3,1.3,24.2,24.2,0,0,0-2.78,1.78,27.821,27.821,0,0,0-2.57,2.19,26.688,26.688,0,0,0-2.22,2.62,22.616,22.616,0,0,0-3.23,20.54,22,22,0,0,0,3.23,6.24,26.821,26.821,0,0,0,2.22,2.63,26.237,26.237,0,0,0,2.57,2.18,20.82,20.82,0,0,0,5.73,3.09,22.7,22.7,0,0,0,27.27-9.67A21.78,21.78,0,0,0,92.7,229a17.35,17.35,0,0,0,.48-2.36c0-.34.12-.66.15-1a7.055,7.055,0,0,0,0-.8l.09-1.09a2.239,2.239,0,0,1,0-.37,2.12,2.12,0,0,1,0,.37c0,.28,0,.64,0,1.1v.8a8.888,8.888,0,0,1-.13,1,14.59,14.59,0,0,1-.44,2.39,21.54,21.54,0,0,1-2.49,6.15,23,23,0,0,1-27.68,10,23.622,23.622,0,0,1-3-1.32A23.151,23.151,0,0,1,56.86,242a25.129,25.129,0,0,1-2.64-2.23A26.753,26.753,0,0,1,52,237.13a22.64,22.64,0,0,1-3.32-6.38,24.86,24.86,0,0,1-1.19-7.31,24.54,24.54,0,0,1,1.2-7.31A22.36,22.36,0,0,1,52,209.75a28,28,0,0,1,2.28-2.68,25.225,25.225,0,0,1,2.63-2.23A24.31,24.31,0,0,1,59.7,203a23.688,23.688,0,0,1,3-1.33,22.917,22.917,0,0,1,27.7,10,21.59,21.59,0,0,1,2.49,6.16,14.49,14.49,0,0,1,.44,2.38c0,.35.11.67.13,1v1.9A2,2,0,0,1,93.51,223.44Z" fill="#263238"/>
      <path id="Path_3317" data-name="Path 3317" d="M111.65,211.5a3.229,3.229,0,0,1,.07.67,17.757,17.757,0,0,0,.08,1.9,18.611,18.611,0,0,1,0,3v1.88a11.724,11.724,0,0,1-.13,2.1c-.14,1.47-.24,3.09-.55,4.81-.13.86-.24,1.75-.42,2.66s-.4,1.84-.6,2.8a69.379,69.379,0,0,1-4,12.06,71.339,71.339,0,0,1-6.27,11.07c-1.16,1.57-2.23,3.09-3.39,4.4-.56.66-1.08,1.33-1.63,1.92l-1.59,1.68c-1,1.11-2,2-2.86,2.79a27.634,27.634,0,0,1-2.27,2l-1.48,1.2a3,3,0,0,1-.53.38,3.571,3.571,0,0,1,.47-.46l1.41-1.27c.63-.54,1.38-1.21,2.2-2s1.82-1.72,2.79-2.83l1.56-1.7c.54-.59,1-1.26,1.6-1.92,1.13-1.31,2.18-2.83,3.33-4.41a73,73,0,0,0,6.18-11,70.559,70.559,0,0,0,4-12l.62-2.78c.18-.9.3-1.79.45-2.64.32-1.7.44-3.31.6-4.77.09-.73.15-1.43.17-2.09l.09-1.87c.09-1.17.07-2.18.07-3v-1.9A4.52,4.52,0,0,1,111.65,211.5Z" fill="#263238"/>
    </g>
    <g id="freepik--Device--inject-9">
      <path id="Path_3318" data-name="Path 3318" d="M354.81,471.34H118.35a11.79,11.79,0,0,1-11.59-12V97.92a11.79,11.79,0,0,1,11.59-12H354.81a11.78,11.78,0,0,1,11.58,12V459.36a11.78,11.78,0,0,1-11.58,11.98Z" fill="#263238"/>
      <path id="Path_3319" data-name="Path 3319" d="M241.11,453.81a11,11,0,1,1-11-10.81,11,11,0,0,1,11,10.81Z" fill="#455a64"/>
      <path id="Path_3320" data-name="Path 3320" d="M263.18,106.3h-53a3.76,3.76,0,0,1-3.7-3.82h0a3.77,3.77,0,0,1,3.7-3.83h53a3.77,3.77,0,0,1,3.7,3.83h0a3.76,3.76,0,0,1-3.7,3.82Z" fill="#455a64"/>
      <rect id="Rectangle_445" data-name="Rectangle 445" width="243.26" height="321.86" transform="translate(114.73 113.43)" fill="#fff"/>
      <rect id="Rectangle_446" data-name="Rectangle 446" width="10.38" height="321.86" transform="translate(347.61 113.43)" fill="#f5f5f5"/>
      <path id="Path_3321" data-name="Path 3321" d="M352.79,229.07h0a3.24,3.24,0,0,1-3.23-3.24V154.64a3.24,3.24,0,0,1,3.23-3.24h0a3.24,3.24,0,0,1,3.24,3.24v71.19a3.24,3.24,0,0,1-3.24,3.24Z" fill="#e0e0e0"/>
      <path id="Path_3322" data-name="Path 3322" d="M326.26,186.68H146.9a5.16,5.16,0,0,1-5.16-5.16h0a5.16,5.16,0,0,1,5.16-5.16H326.26a5.16,5.16,0,0,1,5.16,5.16h0a5.16,5.16,0,0,1-5.16,5.16Z" fill="#e0e0e0"/>
      <path id="Path_3323" data-name="Path 3323" d="M298.67,149H185.84a5.16,5.16,0,0,1-5.16-5.16h0a5.16,5.16,0,0,1,5.16-5.16H298.67a5.16,5.16,0,0,1,5.16,5.16h0A5.16,5.16,0,0,1,298.67,149Z" fill="#07d8a6"/>
      <path id="Path_3324" data-name="Path 3324" d="M300.79,207.45H172.37a5.16,5.16,0,0,1-5.16-5.16h0a5.16,5.16,0,0,1,5.16-5.16H300.79a5.16,5.16,0,0,1,5.16,5.16h0a5.16,5.16,0,0,1-5.16,5.16Z" fill="#e0e0e0"/>
      <path id="Path_3325" data-name="Path 3325" d="M242.81,298H144a5.16,5.16,0,0,1-5.16-5.16h0a5.16,5.16,0,0,1,5.16-5.16h98.81a5.16,5.16,0,0,1,5.16,5.16h0A5.16,5.16,0,0,1,242.81,298Z" fill="#e0e0e0"/>
      <path id="Path_3326" data-name="Path 3326" d="M323.36,276.37H144a5.16,5.16,0,0,1-5.16-5.16h0a5.15,5.15,0,0,1,5.16-5.15H323.36a5.15,5.15,0,0,1,5.16,5.15h0A5.16,5.16,0,0,1,323.36,276.37Z" fill="#e0e0e0"/>
      <rect id="Rectangle_447" data-name="Rectangle 447" width="167.31" height="10.32" rx="5.16" transform="translate(161.21 335.65)" fill="#e0e0e0"/>
      <path id="Path_3327" data-name="Path 3327" d="M323.36,368H144a5.16,5.16,0,0,1-5.16-5.16h0A5.16,5.16,0,0,1,144,357.7H323.36a5.16,5.16,0,0,1,5.16,5.16h0A5.16,5.16,0,0,1,323.36,368Z" fill="#e0e0e0"/>
      <path id="Path_3328" data-name="Path 3328" d="M323.36,390.42H144a5.16,5.16,0,0,1-5.16-5.16h0A5.16,5.16,0,0,1,144,380.1H323.36a5.16,5.16,0,0,1,5.16,5.16h0A5.16,5.16,0,0,1,323.36,390.42Z" fill="#e0e0e0"/>
      <path id="Path_3329" data-name="Path 3329" d="M152.07,340.81a5.36,5.36,0,1,1-5.35-5.36A5.36,5.36,0,0,1,152.07,340.81Z" fill="#07d8a6"/>
      <path id="Path_3330" data-name="Path 3330" d="M323.36,256.22h-157a5.16,5.16,0,0,1-5.16-5.16h0a5.16,5.16,0,0,1,5.16-5.16h157a5.16,5.16,0,0,1,5.16,5.16h0A5.16,5.16,0,0,1,323.36,256.22Z" fill="#e0e0e0"/>
      <circle id="Ellipse_84" data-name="Ellipse 84" cx="5.36" cy="5.36" r="5.36" transform="translate(141.36 245.7)" fill="#07d8a6"/>
      <path id="Path_3331" data-name="Path 3331" d="M318.35,423.23H278.1a8.22,8.22,0,0,1-8.22-8.22h0a8.22,8.22,0,0,1,8.22-8.22h40.25a8.22,8.22,0,0,1,8.22,8.22h0A8.22,8.22,0,0,1,318.35,423.23Z" fill="#07d8a6"/>
    </g>
    <g id="freepik--Padlock--inject-9">
      <path id="Path_3332" data-name="Path 3332" d="M111,35.35,69.28,56.28a8.46,8.46,0,0,0-5.15,7.78V83.58a90.6,90.6,0,0,0,14.88,50C86.53,145,96.49,159.64,113.08,168h7.48c18.46-5.63,32.24-20.64,40.67-33.47a90.6,90.6,0,0,0,14.88-50V64.06A8.46,8.46,0,0,0,171,56.28L123.44,36C121.32,35.13,113.12,34.45,111,35.35Z" fill="#07d8a6"/>
      <path id="Path_3333" data-name="Path 3333" d="M111,35.35,69.28,56.28a8.46,8.46,0,0,0-5.15,7.78V83.58a90.6,90.6,0,0,0,14.88,50C86.53,145,96.49,159.64,113.08,168h7.48c18.46-5.63,32.24-20.64,40.67-33.47a90.6,90.6,0,0,0,14.88-50V64.06A8.46,8.46,0,0,0,171,56.28L123.44,36C121.32,35.13,113.12,34.45,111,35.35Z" opacity="0.3"/>
      <path id="Path_3334" data-name="Path 3334" d="M109.32,36,61.79,56.28a8.45,8.45,0,0,0-5.14,7.78V83.58A91.376,91.376,0,0,0,113.069,168c18.471-5.625,32.251-20.635,40.671-33.465a90.52,90.52,0,0,0,14.88-50V64.06a8.45,8.45,0,0,0-5.14-7.78L116,36A8.48,8.48,0,0,0,109.32,36Z" fill="#07d8a6"/>
      <path id="Path_3335" data-name="Path 3335" d="M168.47,79.27a.72.72,0,0,1,0,.23c0,.18,0,.4,0,.67,0,.64.05,1.5.09,2.59a39.507,39.507,0,0,1,0,4.09c0,.8,0,1.65-.08,2.55v1.4a14.338,14.338,0,0,1-.14,1.47c-.2,2-.33,4.2-.75,6.53-.19,1.16-.34,2.38-.58,3.61s-.54,2.5-.82,3.8a93.643,93.643,0,0,1-5.49,16.39,97.539,97.539,0,0,1-8.5,15.05c-1.58,2.14-3,4.21-4.6,6-.77.9-1.47,1.81-2.22,2.61l-2.16,2.3c-1.34,1.5-2.72,2.69-3.87,3.8-.59.54-1.12,1.06-1.63,1.51l-1.4,1.13-2,1.64-.53.42c-.12.09-.19.13-.19.12s0-.06.15-.17l.5-.45,1.93-1.71,1.41-1.23c.51-.45,1-1,1.6-1.54,1.13-1.12,2.48-2.32,3.8-3.83l2.13-2.32c.74-.8,1.43-1.71,2.18-2.61,1.55-1.78,3-3.85,4.54-6a98.742,98.742,0,0,0,8.43-15,96.46,96.46,0,0,0,5.49-16.29c.29-1.29.56-2.55.84-3.77s.4-2.44.6-3.6c.44-2.32.59-4.51.81-6.5.06-.49.11-1,.16-1.45s0-.94.06-1.39q.06-1.35.12-2.55c.11-1.59.08-3,.08-4.08V79.5A.6.6,0,0,1,168.47,79.27Z" fill="#263238"/>
      <path id="Path_3336" data-name="Path 3336" d="M131.46,105.5h-5.07V77.91a11.78,11.78,0,0,0-23.55,0V105.5H97.77V77.91a16.85,16.85,0,0,1,33.69,0Z" fill="#f5f5f5"/>
      <rect id="Rectangle_448" data-name="Rectangle 448" width="45.4" height="35.58" rx="5.81" transform="translate(91.92 86.78)" fill="#fff"/>
      <path id="Path_3337" data-name="Path 3337" d="M131.51,122.36a11.771,11.771,0,0,0,1.51-.26,5.77,5.77,0,0,0,4.17-5.6V92.18a5.59,5.59,0,0,0-3.3-4.69,6.69,6.69,0,0,0-3.11-.48h-3.36L97.73,87a5.55,5.55,0,0,0-5.4,4.26,7.42,7.42,0,0,0-.16,1.84V113c.09,2.26-.38,4.59.78,6.37A5.62,5.62,0,0,0,98,122.14h11.25l16.29.09h5.57a2.12,2.12,0,0,1,.4,0,1.789,1.789,0,0,1-.4,0h-5.57l-16.29.08H98a6.05,6.05,0,0,1-6.32-6.16V93.14a7.77,7.77,0,0,1,.17-2A6,6,0,0,1,94,87.84a6.12,6.12,0,0,1,3.78-1.32h32.94a7.08,7.08,0,0,1,3.3.54,6,6,0,0,1,3.54,5.07v24.35a5.88,5.88,0,0,1-.88,3.1,5.77,5.77,0,0,1-3.51,2.6A4.5,4.5,0,0,1,131.51,122.36Z" fill="#263238"/>
      <path id="Path_3338" data-name="Path 3338" d="M118.1,105.49a4.9,4.9,0,0,0,1.44-3.48,5,5,0,1,0-6.36,4.78l-1.07,4.74h4.75l-1-4.74a5,5,0,0,0,2.19-1.3" fill="#07d8a6"/>
    </g>
  </g>
</svg>
